<?xml version="1.0" encoding="utf-8"?>
<!-- Generator: Adobe Illustrator 28.0.0, SVG Export Plug-In . SVG Version: 6.00 Build 0)  -->
<svg version="1.1" id="Layer_1" xmlns="http://www.w3.org/2000/svg" xmlns:xlink="http://www.w3.org/1999/xlink" x="0px" y="0px"
	 viewBox="0 0 2956.6 962.8" style="enable-background:new 0 0 2956.6 962.8;" xml:space="preserve">
<style type="text/css">
	.st0{clip-path:url(#SVGID_00000124162051367773532800000009382170220684454288_);fill:#F2F2F1;}
	.st1{clip-path:url(#SVGID_00000168109812787543678640000017769885827563434135_);fill:#FFFFFF;}
	.st2{display:none;}
	.st3{display:inline;}
	.st4{clip-path:url(#SVGID_00000011740276507965587820000001053195532936348562_);}
	.st5{fill:none;stroke:#000000;stroke-width:3;}
	.st6{clip-path:url(#SVGID_00000130605923194340649500000009555048550483851434_);}
</style>
<g id="Layer_2_00000100379968282056286030000006672049112433330842_">
</g>
<g id="Layer_3">
	<g>
		<g>
			<g>
				<g>
					<defs>
						<polygon id="SVGID_1_" points="-695.5,-1132.4 -445.4,-1075.1 -204.5,-1133.7 36.4,-1075.1 277.3,-1133.7 518.2,-1075.1 
							759.1,-1133.7 1000,-1075.1 1240.9,-1133.7 1481.8,-1075.1 1722.7,-1133.7 1963.6,-1075.1 2204.5,-1133.7 2445.4,-1075.1 
							2686.3,-1133.7 2927.2,-1075.1 3168.1,-1133.7 3409,-1075.1 3659.1,-1132.4 3618.2,-1037.2 3681.6,-970.1 3618.2,-903 
							3681.6,-835.8 3618.2,-768.7 3681.6,-701.6 3618.2,-634.5 3681.6,-567.3 3618.2,-500.2 3681.6,-433.1 3618.2,-365.9 
							3681.6,-298.8 3618.2,-231.7 3681.6,-164.5 3618.2,-97.4 3681.6,-30.2 3618.2,36.9 3659.1,132.1 3409,74.7 3168.1,133.4 
							2927.2,74.7 2686.3,133.4 2445.4,74.7 2204.5,133.4 1963.6,74.7 1722.7,133.4 1481.8,74.7 1240.9,133.4 1000,74.7 
							759.1,133.4 518.2,74.7 277.3,133.4 36.4,74.7 -204.5,133.4 -445.4,74.7 -695.5,132.1 -654.7,36.9 -718,-30.2 -654.7,-97.3 
							-718,-164.5 -654.7,-231.6 -718,-298.7 -654.7,-365.9 -718,-433 -654.7,-500.1 -718,-567.3 -654.7,-634.4 -718,-701.5 
							-654.7,-768.7 -718,-835.8 -654.7,-902.9 -718,-970.1 -654.7,-1038.8 						"/>
					</defs>
					<clipPath id="SVGID_00000140003072851003085150000008858914907036680381_">
						<use xlink:href="#SVGID_1_"  style="overflow:visible;"/>
					</clipPath>
					
						<rect x="-1495.7" y="-51.1" style="clip-path:url(#SVGID_00000140003072851003085150000008858914907036680381_);fill:#F2F2F1;" width="5272.2" height="834.4"/>
				</g>
			</g>
		</g>
	</g>
	<g>
		<g>
			<g>
				<g>
					<defs>
						<polygon id="SVGID_00000124884576927598069810000002810512350829196435_" points="-658,2073.9 -721.3,2005.2 -657.9,1938 
							-721.3,1870.9 -657.9,1803.8 -721.3,1736.6 -657.9,1669.5 -721.3,1602.4 -657.9,1535.2 -721.3,1468.1 -657.9,1401 
							-721.3,1333.8 -657.9,1266.7 -721.3,1199.6 -657.9,1132.4 -721.3,1065.3 -657.9,998.2 -698.8,903 -448.7,960.4 -207.8,901.8 
							33.1,960.4 274,901.8 514.9,960.4 755.8,901.8 996.7,960.4 1237.6,901.8 1478.5,960.4 1719.4,901.8 1960.3,960.4 
							2201.2,901.8 2442.1,960.4 2683,901.8 2923.9,960.4 3164.8,901.8 3405.7,960.4 3655.8,903 3614.9,998.2 3678.3,1065.3 
							3614.9,1132.5 3678.3,1199.6 3614.9,1266.8 3678.3,1333.9 3614.9,1401 3678.3,1468.2 3614.9,1535.3 3678.3,1602.4 
							3614.9,1669.6 3678.3,1736.7 3614.9,1803.8 3678.3,1870.9 3614.9,1938.1 3678.3,2005.2 3614.9,2072.4 3655.8,2167.5 
							3405.7,2110.2 3164.8,2168.8 2923.9,2110.2 2683,2168.8 2442.1,2110.2 2201.2,2168.8 1960.3,2110.2 1719.4,2168.8 
							1478.5,2110.2 1237.6,2168.8 996.7,2110.2 755.8,2168.8 514.9,2110.2 274,2168.8 33.1,2110.2 -207.8,2168.8 -448.7,2110.2 
							-698.8,2167.5 						"/>
					</defs>
					<clipPath id="SVGID_00000089535703652183444180000009219545731223387278_">
						<use xlink:href="#SVGID_00000124884576927598069810000002810512350829196435_"  style="overflow:visible;"/>
					</clipPath>
					
						<rect x="-1499" y="251.7" style="clip-path:url(#SVGID_00000089535703652183444180000009219545731223387278_);fill:#FFFFFF;" width="5272.2" height="834.4"/>
				</g>
			</g>
		</g>
	</g>
</g>
<g id="Layer_1_00000160154067382998010520000017761197419510895018_" class="st2">
	<g class="st3">
		<g>
			<g>
				<g>
					<defs>
						<rect id="SVGID_00000106117682497471332180000003980965892565919884_" width="2956.6" height="962.8"/>
					</defs>
					<clipPath id="SVGID_00000160886416500685283190000017845805252093353612_">
						<use xlink:href="#SVGID_00000106117682497471332180000003980965892565919884_"  style="overflow:visible;"/>
					</clipPath>
					<g style="clip-path:url(#SVGID_00000160886416500685283190000017845805252093353612_);">
						<polygon class="st5" points="3045.4,934.5 2866.2,893.4 2693.6,935.4 2521,893.4 2348.3,935.4 2175.7,893.4 2003,935.4 
							1830.4,893.4 1657.8,935.4 1485.1,893.4 1312.5,935.4 1139.8,893.4 967.2,935.4 794.6,893.4 621.9,935.4 449.3,893.4 
							276.6,935.4 104,893.4 -75.2,934.5 -46,866.3 -91.4,818.2 -46,770.1 -91.4,722 -46,673.9 -91.4,625.8 -46,577.7 -91.4,529.6 
							-46,481.5 -91.4,433.3 -46,385.2 -91.4,337.1 -46,289 -91.4,240.9 -46,192.8 -91.4,144.7 -46,96.5 -75.2,28.3 104,69.4 
							276.6,27.4 449.2,69.4 621.9,27.4 794.5,69.4 967.2,27.4 1139.8,69.4 1312.4,27.4 1485.1,69.4 1657.7,27.4 1830.4,69.4 
							2003,27.4 2175.6,69.4 2348.3,27.4 2520.9,69.4 2693.6,27.4 2866.2,69.4 3045.4,28.3 3016.2,96.5 3061.6,144.6 3016.2,192.8 
							3061.6,240.9 3016.2,289 3061.6,337.1 3016.2,385.2 3061.6,433.3 3016.2,481.4 3061.6,529.5 3016.2,577.6 3061.6,625.7 
							3016.2,673.8 3061.6,722 3016.2,770.1 3061.6,818.2 3016.2,867.4 						"/>
					</g>
				</g>
			</g>
		</g>
		<g>
			<g>
				<g>
					<defs>
						<rect id="SVGID_00000029726668378145946720000017815559336994852242_" width="2956.6" height="962.8"/>
					</defs>
					<clipPath id="SVGID_00000080205083646837675490000012706604224434816692_">
						<use xlink:href="#SVGID_00000029726668378145946720000017815559336994852242_"  style="overflow:visible;"/>
					</clipPath>
					<g style="clip-path:url(#SVGID_00000080205083646837675490000012706604224434816692_);">
						<polygon class="st5" points="2527.1,69.2 2347.9,28.1 2175.3,70.1 2002.7,28.1 1830,70.1 1657.4,28.1 1484.8,70.1 
							1312.1,28.1 1139.5,70.1 966.8,28.1 794.2,70.1 621.6,28.1 448.9,70.1 276.3,28.1 103.6,70.1 -69,28.1 -241.6,70.1 
							-414.3,28.1 -593.5,69.2 -564.2,1 -609.7,-47.1 -564.2,-95.2 -609.7,-143.3 -564.2,-191.4 -609.7,-239.5 -564.2,-287.6 
							-609.7,-335.8 -564.2,-383.9 -609.7,-432 -564.2,-480.1 -609.7,-528.2 -564.2,-576.3 -609.7,-624.4 -564.2,-672.5 
							-609.7,-720.7 -564.2,-768.8 -593.5,-837 -414.3,-795.9 -241.7,-837.9 -69,-795.9 103.6,-837.9 276.2,-795.9 448.9,-837.9 
							621.5,-795.9 794.2,-837.9 966.8,-795.9 1139.4,-837.9 1312.1,-795.9 1484.7,-837.9 1657.4,-795.9 1830,-837.9 2002.7,-795.9 
							2175.3,-837.9 2347.9,-795.9 2527.1,-837 2497.9,-768.8 2543.3,-720.7 2497.9,-672.6 2543.3,-624.5 2497.9,-576.4 
							2543.3,-528.2 2497.9,-480.1 2543.3,-432 2497.9,-383.9 2543.3,-335.8 2497.9,-287.7 2543.3,-239.6 2497.9,-191.5 
							2543.3,-143.4 2497.9,-95.2 2543.3,-47.1 2497.9,2.1 						"/>
					</g>
				</g>
			</g>
		</g>
	</g>
</g>
</svg>
