<?xml version="1.0" encoding="UTF-8"?>
<svg id="Layer_1" data-name="Layer 1" xmlns="http://www.w3.org/2000/svg" xmlns:xlink="http://www.w3.org/1999/xlink" viewBox="0 0 2916 962.85">
  <defs>
    <style>
      .cls-1 {
        clip-path: url(#clippath);
      }

      .cls-2 {
        fill: none;
        stroke-width: 0px;
      }
    </style>
    <clipPath id="clippath">
      <rect class="cls-2" x="11.66" width="2888.33" height="962.85"/>
    </clipPath>
  </defs>
  <g class="cls-1">
    <polygon class="cls-2" points="2901.06 934.53 2735.34 893.42 2575.67 935.42 2416.01 893.42 2256.34 935.42 2096.68 893.42 1937.01 935.42 1777.35 893.42 1617.68 935.42 1458.02 893.42 1298.35 935.42 1138.68 893.42 979.01 935.42 819.35 893.42 659.68 935.42 500.02 893.42 340.35 935.42 180.67 893.42 14.94 934.53 42 866.32 0 818.21 42 770.1 0 721.99 42 673.89 0 625.78 42 577.67 0 529.56 42 481.45 0 433.33 42 385.22 0 337.11 42 289 0 240.89 42 192.77 0 144.66 42 96.54 14.94 28.32 180.66 69.42 340.32 27.42 499.99 69.42 659.65 27.42 819.32 69.42 978.98 27.42 1138.65 69.42 1298.32 27.42 1457.98 69.42 1617.65 27.42 1777.32 69.42 1936.98 27.42 2096.65 69.42 2256.31 27.42 2415.98 69.42 2575.65 27.42 2735.32 69.42 2901.06 28.32 2874 96.53 2916 144.63 2874 192.75 2916 240.85 2874 288.96 2916 337.07 2874 385.18 2916 433.29 2874 481.4 2916 529.51 2874 577.62 2916 625.74 2874 673.85 2916 721.96 2874 770.07 2916 818.19 2874.03 867.4 2901.06 934.53"/>
  </g>
</svg>