<?xml version="1.0" encoding="utf-8"?>
<!-- Generator: Adobe Illustrator 28.0.0, SVG Export Plug-In . SVG Version: 6.00 Build 0)  -->
<svg version="1.1" id="Layer_1" xmlns="http://www.w3.org/2000/svg" xmlns:xlink="http://www.w3.org/1999/xlink" x="0px" y="0px"
	 viewBox="0 0 2956.56 962.85" style="enable-background:new 0 0 2956.56 962.85;" xml:space="preserve">
<style type="text/css">
	.st0{clip-path:url(#SVGID_00000053514763706137839830000002986120714925827257_);fill:#F2F2F1;}
	.st1{clip-path:url(#SVGID_00000150087749866155185200000003291599041189465223_);fill:#FFFFFF;}
	.st2{display:none;}
	.st3{display:inline;}
	.st4{clip-path:url(#SVGID_00000080902816403548527850000016678610077400198040_);}
	.st5{fill:none;stroke:#000000;stroke-width:3;}
	.st6{clip-path:url(#SVGID_00000052104254414143008650000008229346321332490918_);}
</style>
<g id="Layer_2_00000100379968282056286030000006672049112433330842_">
</g>
<g id="Layer_3">
	<g>
		<g>
			<defs>
				<polygon id="SVGID_1_" points="-695.48,-1132.43 -445.42,-1075.06 -204.53,-1133.67 36.36,-1075.06 277.27,-1133.67 
					518.16,-1075.06 759.07,-1133.67 999.96,-1075.06 1240.87,-1133.67 1481.78,-1075.06 1722.67,-1133.67 1963.57,-1075.06 
					2204.48,-1133.67 2445.37,-1075.06 2686.28,-1133.67 2927.19,-1075.06 3168.08,-1133.67 3409,-1075.06 3659.06,-1132.43 
					3618.23,-1037.25 3681.6,-970.12 3618.23,-902.98 3681.6,-835.85 3618.23,-768.73 3681.6,-701.6 3618.23,-634.47 
					3681.6,-567.34 3618.23,-500.2 3681.6,-433.06 3618.23,-365.92 3681.6,-298.79 3618.23,-231.66 3681.6,-164.53 3618.23,-97.38 
					3681.6,-30.25 3618.23,36.9 3659.06,132.09 3409.02,74.74 3168.13,133.35 2927.22,74.74 2686.33,133.35 2445.44,74.74 
					2204.53,133.35 1963.62,74.74 1722.73,133.35 1481.82,74.74 1240.91,133.35 1000.02,74.74 759.11,133.35 518.22,74.74 
					277.31,133.35 36.41,74.74 -204.5,133.35 -445.41,74.74 -695.46,132.09 -654.65,36.91 -718.02,-30.21 -654.65,-97.35 
					-718.02,-164.47 -654.65,-231.6 -718.02,-298.74 -654.65,-365.87 -718.02,-433 -654.65,-500.13 -718.02,-567.27 -654.65,-634.4 
					-718.02,-701.54 -654.65,-768.68 -718.02,-835.81 -654.65,-902.94 -718.02,-970.09 -654.68,-1038.75 				"/>
			</defs>
			<clipPath id="SVGID_00000172434901802816133960000010538556228864627353_">
				<use xlink:href="#SVGID_1_"  style="overflow:visible;"/>
			</clipPath>
			
				<rect x="-1495.71" y="-51.06" style="clip-path:url(#SVGID_00000172434901802816133960000010538556228864627353_);fill:#F2F2F1;" width="5272.16" height="834.43"/>
		</g>
	</g>
	<g>
		<g>
			<defs>
				<polygon id="SVGID_00000163783321672785309440000002898728682692611751_" points="-657.97,2073.85 -721.31,2005.19 
					-657.94,1938.04 -721.31,1870.91 -657.94,1803.78 -721.31,1736.64 -657.94,1669.5 -721.31,1602.37 -657.94,1535.23 
					-721.31,1468.1 -657.94,1400.97 -721.31,1333.84 -657.94,1266.7 -721.31,1199.57 -657.94,1132.45 -721.31,1065.31 
					-657.94,998.19 -698.75,903.01 -448.7,960.36 -207.79,901.75 33.12,960.36 274.02,901.75 514.93,960.36 755.82,901.75 
					996.73,960.36 1237.62,901.75 1478.53,960.36 1719.44,901.75 1960.33,960.36 2201.24,901.75 2442.15,960.36 2683.04,901.75 
					2923.93,960.36 3164.84,901.75 3405.73,960.36 3655.77,903.01 3614.94,998.2 3678.31,1065.35 3614.94,1132.48 3678.31,1199.63 
					3614.94,1266.76 3678.31,1333.89 3614.94,1401.02 3678.31,1468.16 3614.94,1535.3 3678.31,1602.44 3614.94,1669.57 
					3678.31,1736.7 3614.94,1803.83 3678.31,1870.95 3614.94,1938.08 3678.31,2005.22 3614.94,2072.35 3655.77,2167.53 
					3405.71,2110.16 3164.79,2168.77 2923.9,2110.16 2682.99,2168.77 2442.08,2110.16 2201.19,2168.77 1960.28,2110.16 
					1719.38,2168.77 1478.48,2110.16 1237.58,2168.77 996.67,2110.16 755.78,2168.77 514.87,2110.16 273.98,2168.77 33.07,2110.16 
					-207.82,2168.77 -448.71,2110.16 -698.77,2167.53 				"/>
			</defs>
			<clipPath id="SVGID_00000093884352975818417210000014365634347407174563_">
				<use xlink:href="#SVGID_00000163783321672785309440000002898728682692611751_"  style="overflow:visible;"/>
			</clipPath>
			
				<rect x="-1499" y="251.73" style="clip-path:url(#SVGID_00000093884352975818417210000014365634347407174563_);fill:#FFFFFF;" width="5272.16" height="834.43"/>
		</g>
	</g>
</g>
<g id="Layer_1_00000160154067382998010520000017761197419510895018_" class="st2">
	<g class="st3">
		<g>
			<defs>
				<rect id="SVGID_00000180365406364945496980000013245401781498241944_" width="2956.56" height="962.85"/>
			</defs>
			<clipPath id="SVGID_00000060750585114470040560000012156708449754721691_">
				<use xlink:href="#SVGID_00000180365406364945496980000013245401781498241944_"  style="overflow:visible;"/>
			</clipPath>
			<g style="clip-path:url(#SVGID_00000060750585114470040560000012156708449754721691_);">
				<polygon class="st5" points="3045.43,934.53 2866.23,893.42 2693.6,935.42 2520.96,893.42 2348.32,935.42 2175.68,893.42 
					2003.04,935.42 1830.41,893.42 1657.76,935.42 1485.12,893.42 1312.48,935.42 1139.84,893.42 967.19,935.42 794.56,893.42 
					621.91,935.42 449.27,893.42 276.63,935.42 103.98,893.42 -75.22,934.53 -45.96,866.32 -91.37,818.21 -45.96,770.1 
					-91.37,721.99 -45.96,673.89 -91.37,625.78 -45.96,577.67 -91.37,529.56 -45.96,481.45 -91.37,433.33 -45.96,385.22 
					-91.37,337.11 -45.96,289 -91.37,240.89 -45.96,192.77 -91.37,144.66 -45.96,96.54 -75.22,28.32 103.97,69.42 276.6,27.42 
					449.25,69.42 621.88,27.42 794.51,69.42 967.16,27.42 1139.8,69.42 1312.44,27.42 1485.08,69.42 1657.73,27.42 1830.36,69.42 
					2003.01,27.42 2175.64,69.42 2348.29,27.42 2520.93,69.42 2693.58,27.42 2866.22,69.42 3045.42,28.32 3016.17,96.53 
					3061.58,144.63 3016.17,192.75 3061.58,240.85 3016.17,288.96 3061.58,337.07 3016.17,385.18 3061.58,433.29 3016.17,481.4 
					3061.58,529.51 3016.17,577.62 3061.58,625.74 3016.17,673.85 3061.58,721.96 3016.17,770.07 3061.58,818.19 3016.19,867.4 				
					"/>
			</g>
		</g>
		<g>
			<defs>
				<rect id="SVGID_00000174573608628176344540000012902882789895689659_" width="2956.56" height="962.85"/>
			</defs>
			<clipPath id="SVGID_00000019669061963134584350000009035035316320259258_">
				<use xlink:href="#SVGID_00000174573608628176344540000012902882789895689659_"  style="overflow:visible;"/>
			</clipPath>
			<g style="clip-path:url(#SVGID_00000019669061963134584350000009035035316320259258_);">
				<polygon class="st5" points="2527.15,69.21 2347.95,28.1 2175.32,70.1 2002.68,28.1 1830.04,70.1 1657.4,28.1 1484.76,70.1 
					1312.13,28.1 1139.48,70.1 966.84,28.1 794.2,70.1 621.56,28.1 448.91,70.1 276.28,28.1 103.63,70.1 -69.01,28.1 -241.65,70.1 
					-414.3,28.1 -593.5,69.21 -564.24,1 -609.65,-47.11 -564.24,-95.22 -609.65,-143.33 -564.24,-191.43 -609.65,-239.54 
					-564.24,-287.65 -609.65,-335.76 -564.24,-383.87 -609.65,-431.99 -564.24,-480.1 -609.65,-528.21 -564.24,-576.32 
					-609.65,-624.43 -564.24,-672.55 -609.65,-720.66 -564.24,-768.78 -593.5,-837 -414.31,-795.9 -241.68,-837.9 -69.03,-795.9 
					103.6,-837.9 276.23,-795.9 448.88,-837.9 621.52,-795.9 794.16,-837.9 966.8,-795.9 1139.45,-837.9 1312.08,-795.9 
					1484.73,-837.9 1657.36,-795.9 1830.01,-837.9 2002.65,-795.9 2175.3,-837.9 2347.94,-795.9 2527.14,-837 2497.89,-768.79 
					2543.3,-720.69 2497.89,-672.57 2543.3,-624.47 2497.89,-576.36 2543.3,-528.25 2497.89,-480.14 2543.3,-432.03 
					2497.89,-383.92 2543.3,-335.81 2497.89,-287.7 2543.3,-239.58 2497.89,-191.47 2543.3,-143.36 2497.89,-95.25 2543.3,-47.13 
					2497.91,2.08 				"/>
			</g>
		</g>
	</g>
</g>
</svg>
