<?xml version="1.0" encoding="utf-8"?>
<!-- Generator: Adobe Illustrator 28.0.0, SVG Export Plug-In . SVG Version: 6.00 Build 0)  -->
<svg version="1.1" xmlns="http://www.w3.org/2000/svg" xmlns:xlink="http://www.w3.org/1999/xlink" x="0px" y="0px"
	 viewBox="0 0 2956.56 962.85" style="enable-background:new 0 0 2956.56 962.85;" xml:space="preserve">
<style type="text/css">
	.st0{clip-path:url(#SVGID_00000100341842574782541970000006645154821413881231_);fill:#F2F2F1;}
	.st1{clip-path:url(#SVGID_00000139992557556076658570000011158366447333495954_);fill:#FFFFFF;}
	.st2{display:none;}
	.st3{display:inline;}
	.st4{clip-path:url(#SVGID_00000176738327611656247090000014042082398151926706_);}
	.st5{fill:none;stroke:#000000;stroke-width:3;}
</style>
<g id="Layer_2">
</g>
<g id="Layer_3">
	<g>
		<defs>
			<polygon id="SVGID_1_" points="-698.99,-1071.73 -448.93,-1014.36 -208.04,-1072.97 32.85,-1014.36 273.76,-1072.97 
				514.65,-1014.36 755.56,-1072.97 996.45,-1014.36 1237.36,-1072.97 1478.27,-1014.36 1719.16,-1072.97 1960.06,-1014.36 
				2200.97,-1072.97 2441.86,-1014.36 2682.77,-1072.97 2923.68,-1014.36 3164.57,-1072.97 3405.49,-1014.36 3655.55,-1071.73 
				3614.72,-976.55 3678.09,-909.42 3614.72,-842.28 3678.09,-775.15 3614.72,-708.03 3678.09,-640.9 3614.72,-573.77 
				3678.09,-506.64 3614.72,-439.5 3678.09,-372.36 3614.72,-305.22 3678.09,-238.09 3614.72,-170.96 3678.09,-103.83 
				3614.72,-36.68 3678.09,30.45 3614.72,97.6 3655.55,192.79 3405.51,135.44 3164.62,194.05 2923.71,135.44 2682.82,194.05 
				2441.93,135.44 2201.02,194.05 1960.11,135.44 1719.22,194.05 1478.31,135.44 1237.4,194.05 996.51,135.44 755.6,194.05 
				514.71,135.44 273.8,194.05 32.9,135.44 -208.01,194.05 -448.92,135.44 -698.97,192.79 -658.16,97.61 -721.53,30.49 
				-658.16,-36.65 -721.53,-103.77 -658.16,-170.9 -721.53,-238.04 -658.16,-305.17 -721.53,-372.3 -658.16,-439.43 
				-721.53,-506.57 -658.16,-573.7 -721.53,-640.84 -658.16,-707.98 -721.53,-775.11 -658.16,-842.24 -721.53,-909.39 
				-658.19,-978.05 			"/>
		</defs>
		<clipPath id="SVGID_00000005251226676580622300000016455829302138537621_">
			<use xlink:href="#SVGID_1_"  style="overflow:visible;"/>
		</clipPath>
		
			<rect x="-1499.22" y="9.64" style="clip-path:url(#SVGID_00000005251226676580622300000016455829302138537621_);fill:#F2F2F1;" width="5272.16" height="834.43"/>
	</g>
	<g>
		<defs>
			<polygon id="SVGID_00000041258054131100444730000013618826297218817417_" points="-657.97,2011.85 -721.31,1943.19 
				-657.94,1876.04 -721.31,1808.91 -657.94,1741.78 -721.31,1674.64 -657.94,1607.5 -721.31,1540.37 -657.94,1473.23 
				-721.31,1406.1 -657.94,1338.97 -721.31,1271.84 -657.94,1204.7 -721.31,1137.57 -657.94,1070.45 -721.31,1003.31 
				-657.94,936.19 -698.75,841.01 -448.7,898.36 -207.79,839.75 33.12,898.36 274.02,839.75 514.93,898.36 755.82,839.75 
				996.73,898.36 1237.62,839.75 1478.53,898.36 1719.44,839.75 1960.33,898.36 2201.24,839.75 2442.15,898.36 2683.04,839.75 
				2923.93,898.36 3164.84,839.75 3405.73,898.36 3655.77,841.01 3614.94,936.2 3678.31,1003.35 3614.94,1070.48 3678.31,1137.63 
				3614.94,1204.76 3678.31,1271.89 3614.94,1339.02 3678.31,1406.16 3614.94,1473.3 3678.31,1540.44 3614.94,1607.57 
				3678.31,1674.7 3614.94,1741.83 3678.31,1808.95 3614.94,1876.08 3678.31,1943.22 3614.94,2010.35 3655.77,2105.53 
				3405.71,2048.16 3164.79,2106.77 2923.9,2048.16 2682.99,2106.77 2442.08,2048.16 2201.19,2106.77 1960.28,2048.16 
				1719.38,2106.77 1478.48,2048.16 1237.58,2106.77 996.67,2048.16 755.78,2106.77 514.87,2048.16 273.98,2106.77 33.07,2048.16 
				-207.82,2106.77 -448.71,2048.16 -698.77,2105.53 			"/>
		</defs>
		<clipPath id="SVGID_00000166646788910079891630000007019254290465298340_">
			<use xlink:href="#SVGID_00000041258054131100444730000013618826297218817417_"  style="overflow:visible;"/>
		</clipPath>
		
			<rect x="-1499" y="189.73" style="clip-path:url(#SVGID_00000166646788910079891630000007019254290465298340_);fill:#FFFFFF;" width="5272.16" height="834.43"/>
	</g>
</g>
<g id="Layer_1" class="st2">
	<g class="st3">
		<defs>
			<rect id="SVGID_00000157993840569203968430000014921904225457207713_" width="2956.56" height="962.85"/>
		</defs>
		<clipPath id="SVGID_00000049208090881344680140000009704354936450819239_">
			<use xlink:href="#SVGID_00000157993840569203968430000014921904225457207713_"  style="overflow:visible;"/>
		</clipPath>
		<g style="clip-path:url(#SVGID_00000049208090881344680140000009704354936450819239_);">
			<polygon class="st5" points="3045.43,934.53 2866.23,893.42 2693.6,935.42 2520.96,893.42 2348.32,935.42 2175.68,893.42 
				2003.04,935.42 1830.41,893.42 1657.76,935.42 1485.12,893.42 1312.48,935.42 1139.84,893.42 967.19,935.42 794.56,893.42 
				621.91,935.42 449.27,893.42 276.63,935.42 103.98,893.42 -75.22,934.53 -45.96,866.32 -91.37,818.21 -45.96,770.1 
				-91.37,721.99 -45.96,673.89 -91.37,625.78 -45.96,577.67 -91.37,529.56 -45.96,481.45 -91.37,433.33 -45.96,385.22 
				-91.37,337.11 -45.96,289 -91.37,240.89 -45.96,192.77 -91.37,144.66 -45.96,96.54 -75.22,28.32 103.97,69.42 276.6,27.42 
				449.25,69.42 621.88,27.42 794.51,69.42 967.16,27.42 1139.8,69.42 1312.44,27.42 1485.08,69.42 1657.73,27.42 1830.36,69.42 
				2003.01,27.42 2175.64,69.42 2348.29,27.42 2520.93,69.42 2693.58,27.42 2866.22,69.42 3045.42,28.32 3016.17,96.53 
				3061.58,144.63 3016.17,192.75 3061.58,240.85 3016.17,288.96 3061.58,337.07 3016.17,385.18 3061.58,433.29 3016.17,481.4 
				3061.58,529.51 3016.17,577.62 3061.58,625.74 3016.17,673.85 3061.58,721.96 3016.17,770.07 3061.58,818.19 3016.19,867.4 			
				"/>
		</g>
		<g style="clip-path:url(#SVGID_00000049208090881344680140000009704354936450819239_);">
			<polygon class="st5" points="2527.15,69.21 2347.95,28.1 2175.32,70.1 2002.68,28.1 1830.04,70.1 1657.4,28.1 1484.76,70.1 
				1312.13,28.1 1139.48,70.1 966.84,28.1 794.2,70.1 621.56,28.1 448.91,70.1 276.28,28.1 103.63,70.1 -69.01,28.1 -241.65,70.1 
				-414.3,28.1 -593.5,69.21 -564.24,1 -609.65,-47.11 -564.24,-95.22 -609.65,-143.33 -564.24,-191.43 -609.65,-239.54 
				-564.24,-287.65 -609.65,-335.76 -564.24,-383.87 -609.65,-431.99 -564.24,-480.1 -609.65,-528.21 -564.24,-576.32 
				-609.65,-624.43 -564.24,-672.55 -609.65,-720.66 -564.24,-768.78 -593.5,-837 -414.31,-795.9 -241.68,-837.9 -69.03,-795.9 
				103.6,-837.9 276.23,-795.9 448.88,-837.9 621.52,-795.9 794.16,-837.9 966.8,-795.9 1139.45,-837.9 1312.08,-795.9 
				1484.73,-837.9 1657.36,-795.9 1830.01,-837.9 2002.65,-795.9 2175.3,-837.9 2347.94,-795.9 2527.14,-837 2497.89,-768.79 
				2543.3,-720.69 2497.89,-672.57 2543.3,-624.47 2497.89,-576.36 2543.3,-528.25 2497.89,-480.14 2543.3,-432.03 2497.89,-383.92 
				2543.3,-335.81 2497.89,-287.7 2543.3,-239.58 2497.89,-191.47 2543.3,-143.36 2497.89,-95.25 2543.3,-47.13 2497.91,2.08 			"/>
		</g>
	</g>
</g>
</svg>
